<svg id="Layer_1" data-name="Layer 1" xmlns="http://www.w3.org/2000/svg" viewBox="0 0 118.14 118.15"><defs><style>.cls-1{fill:#706f6f;}</style></defs><path class="cls-1" d="M59.12,118.15C26.81,118.27.27,91.8,0,59.19-.26,26.91,26.79-.17,59.15,0c32.53.17,59,26.7,59,59.09A59.31,59.31,0,0,1,59.12,118.15Zm7-66.13V49.11c0-7.65,0-15.29,0-22.93a7,7,0,1,0-14,0C52,32,52,37.79,52,43.61V52H49.1c-7.64,0-15.29,0-22.93,0a7,7,0,1,0,0,14c5.81.08,11.63,0,17.44,0H52v2.92c0,7.64,0,15.29,0,22.93a7,7,0,1,0,14,0c.07-5.73,0-11.47,0-17.2,0-2.8,0-5.61,0-8.67H69c7.65,0,15.29,0,22.93,0a7,7,0,1,0,0-14c-5.73-.07-11.46,0-17.2,0Z"/></svg>