<svg id="Layer_1" data-name="Layer 1" xmlns="http://www.w3.org/2000/svg" viewBox="0 0 199.01 53.35"><defs><style>.cls-1,.cls-2{fill:#0f27c0;}.cls-1{fill-rule:evenodd;}</style></defs><path class="cls-1" d="M15.92,43V36.82H9.78a9.36,9.36,0,0,1-6.57-2.73,9.29,9.29,0,1,1,15.87-6.58v6.15H31.37V27.51a9.29,9.29,0,1,1,9.31,9.31H34.53V43a9.31,9.31,0,0,1-18.61,0ZM3.63,27.51a6.2,6.2,0,0,0,1.81,4.36,6.12,6.12,0,0,0,4.34,1.79h6.14V27.51a6.15,6.15,0,0,0-12.29,0Zm30.9,0v6.15h6.15A6.1,6.1,0,0,0,45,31.87a6.16,6.16,0,0,0,1.81-4.36,6.18,6.18,0,0,0-6.14-6.14,6.2,6.2,0,0,0-4.36,1.81,6.1,6.1,0,0,0-1.79,4.33ZM15.92,10.39A9.34,9.34,0,1,1,18.66,17a9.27,9.27,0,0,1-2.74-6.56Zm3.16,0A6.15,6.15,0,1,0,20.89,6a6.2,6.2,0,0,0-1.81,4.36Zm0,26.43V43a6.15,6.15,0,0,0,12.29,0V36.82Z"/><path class="cls-2" d="M63.26,17.36h9.42a7.58,7.58,0,0,1,5.49,1.86,4.7,4.7,0,0,1,1.41,3.48v.06a5,5,0,0,1-3,4.68c2.46.84,4.17,2.25,4.17,5.1v.06c0,3.75-3.09,5.76-7.77,5.76H63.26ZM75.89,23.3c0-1.65-1.32-2.67-3.69-2.67H66.89v5.58h5c2.37,0,4-.93,4-2.85Zm-3.15,6H66.89v5.76H73c2.52,0,4-1,4-2.88v-.06C77.06,30.38,75.65,29.33,72.74,29.33Z"/><path class="cls-2" d="M86.21,16.46h3.63v21.9H86.21Z"/><path class="cls-2" d="M95.9,32.6V22.52h3.63v9c0,2.46,1.23,3.84,3.39,3.84s3.57-1.44,3.57-3.9V22.52h3.66V38.36h-3.66V35.9a5.7,5.7,0,0,1-4.95,2.79C98,38.69,95.9,36.29,95.9,32.6Z"/><path class="cls-2" d="M115.31,30.5v-.06c0-4.53,3.21-8.25,7.74-8.25,5,0,7.59,4,7.59,8.52,0,.33,0,.66-.06,1H118.94a4.42,4.42,0,0,0,4.56,4,5.75,5.75,0,0,0,4.29-1.89l2.13,1.89a8,8,0,0,1-6.48,3A7.9,7.9,0,0,1,115.31,30.5ZM127,29.33c-.24-2.34-1.62-4.17-4-4.17-2.22,0-3.78,1.71-4.11,4.17Z"/><path class="cls-2" d="M136.22,17.36h3.93l6.39,9.93,6.39-9.93h3.93v21h-3.69V23.3l-6.63,9.9h-.12l-6.57-9.84v15h-3.63Z"/><path class="cls-2" d="M162.47,30.5v-.06c0-4.53,3.21-8.25,7.74-8.25,5,0,7.59,4,7.59,8.52,0,.33,0,.66-.06,1H166.1a4.42,4.42,0,0,0,4.56,4A5.75,5.75,0,0,0,175,33.86l2.13,1.89a8,8,0,0,1-6.48,3A7.9,7.9,0,0,1,162.47,30.5Zm11.73-1.17c-.24-2.34-1.62-4.17-4-4.17-2.22,0-3.78,1.71-4.11,4.17Z"/><path class="cls-2" d="M182.15,30.47v-.06c0-5.25,3.57-8.22,7.35-8.22A6.48,6.48,0,0,1,194.9,25V16.46h3.63v21.9H194.9V35.72a6.34,6.34,0,0,1-5.4,3C185.78,38.69,182.15,35.72,182.15,30.47Zm12.81,0v-.06a4.75,4.75,0,0,0-4.59-5.07c-2.49,0-4.56,1.92-4.56,5.07v.06c0,3.06,2.1,5.07,4.56,5.07A4.77,4.77,0,0,0,195,30.47Z"/></svg>