<svg id="Layer_1" data-name="Layer 1" xmlns="http://www.w3.org/2000/svg" viewBox="0 0 201.82 51.19"><defs><style>.cls-1,.cls-2{fill:#0f27c0;}.cls-1{fill-rule:evenodd;}.cls-2{font-size:30px;font-family:Gotham-Medium, Gotham;font-weight:500;letter-spacing:0.05em;}</style></defs><path class="cls-1" d="M15.43,41.88V35.74H9.29A9.3,9.3,0,0,1,0,26.43a9.3,9.3,0,0,1,18.59,0v6.14H30.88V26.43a9.29,9.29,0,1,1,9.31,9.31H34v6.14a9.31,9.31,0,0,1-18.61,0ZM3.14,26.43A6.16,6.16,0,0,0,5,30.78a6.1,6.1,0,0,0,4.34,1.79h6.14V26.43a6.1,6.1,0,0,0-1.79-4.34,6.16,6.16,0,0,0-10.5,4.34Zm30.9,0v6.14h6.15a6.06,6.06,0,0,0,4.33-1.79,6.16,6.16,0,0,0-4.33-10.5,6.24,6.24,0,0,0-4.36,1.81A6.14,6.14,0,0,0,34,26.43ZM15.43,9.31A9.31,9.31,0,1,1,31.3,15.87a9.27,9.27,0,0,1-13.12,0,9.29,9.29,0,0,1-2.75-6.56Zm3.16,0A6.15,6.15,0,1,0,20.4,5a6.2,6.2,0,0,0-1.81,4.36Zm0,26.43v6.14a6.15,6.15,0,0,0,12.29,0V35.74Z"/><text class="cls-2" transform="translate(60.07 37.27)">BlueMed</text></svg>