<svg id="Layer_1" data-name="Layer 1" xmlns="http://www.w3.org/2000/svg" viewBox="0 0 19.6 19.61"><defs><style>.cls-1{fill:#706f6f;}</style></defs><path class="cls-1" d="M19.6,9.84A9.8,9.8,0,1,1,9.84,0,9.86,9.86,0,0,1,19.6,9.84Zm-3.43,5.95a8.76,8.76,0,1,0-12.77,0l.06-.06a5.08,5.08,0,0,1,3.25-2.37,12.1,12.1,0,0,1,5.15-.22A6.55,6.55,0,0,1,15,14.35,4.35,4.35,0,0,1,16.17,15.79ZM9.79,14h-.6a7.63,7.63,0,0,0-3.26.75,3.49,3.49,0,0,0-1.64,1.6c-.07.15-.06.25.08.34.29.19.57.4.86.58a8.72,8.72,0,0,0,9.88-.51c.29-.23.3-.24.11-.57a3.71,3.71,0,0,0-1.55-1.44A8.24,8.24,0,0,0,9.79,14Z"/><path class="cls-1" d="M9.79,14a8.24,8.24,0,0,1,3.88.75,3.71,3.71,0,0,1,1.55,1.44c.19.33.18.34-.11.57a8.72,8.72,0,0,1-9.88.51c-.29-.18-.57-.39-.86-.58-.14-.09-.15-.19-.08-.34a3.49,3.49,0,0,1,1.64-1.6A7.63,7.63,0,0,1,9.19,14Z"/><path class="cls-1" d="M9.79,11.57A4.2,4.2,0,1,1,14,7.36,4.23,4.23,0,0,1,9.79,11.57ZM13,7.39a3.17,3.17,0,1,0-3.18,3.14A3.16,3.16,0,0,0,13,7.39Z"/><path class="cls-1" d="M13,7.39A3.17,3.17,0,1,1,9.82,4.2,3.15,3.15,0,0,1,13,7.39Z"/></svg>