<svg id="Layer_1" data-name="Layer 1" xmlns="http://www.w3.org/2000/svg" viewBox="0 0 170.63 170.75"><defs><style>.cls-1{fill:#706f6f;}</style></defs><path class="cls-1" d="M85.77,8.39A77,77,0,1,1,8.3,85.1,77,77,0,0,1,85.77,8.39Zm1.66,142.15c3.3-.52,8.81-.93,14.08-2.27,15.74-4,28.2-12.94,37.44-26.29a3,3,0,0,0,.36-2.41c-1.39-3.91-2.79-7.82-4.47-11.61a40.76,40.76,0,0,0-15.22-18.38c-2.59-1.67-5.41-2.59-8.4-1.6a23.15,23.15,0,0,0-5.73,2.93,34.86,34.86,0,0,1-18.71,6.37,35.83,35.83,0,0,1-23.11-7.36c-4.14-3-8.43-3.08-12.8-.32A37.09,37.09,0,0,0,40.44,99.72c-4.34,6.13-7,13-9.24,20.1a3,3,0,0,0,.49,2.25C44.82,140.43,62.74,149.78,87.43,150.54ZM85.38,35.82a26.47,26.47,0,1,0,26.46,26.41A26.45,26.45,0,0,0,85.38,35.82Z"/></svg>